PathFileType	4	(X/Y/Z)	TVC_39_BWA_04_walk_RCNL2025.trc
DataRate	CameraRate	NumFrames	NumMarkers	Units	OrigDataRate	OrigDataStartFrame	OrigNumFrames
100	100	8	27	mm	100	159	1269
Frame#	Time	R_Shoulder			L_Shoulder			C7			J_Notch			R_Elbow			L_Elbow			R_Wrist			L_Wrist			R_Asis			L_Asis			R_Psis			L_Psis			Sacral			Thoracic			Sternum			R_Thigh_Lateral			R_Knee_Lateral			R_Shank_Lateral			R_Ankle_Lateral			R_Heel			R_Toe			L_Thigh_Lateral			L_Knee_Lateral			L_Shank_Lateral			L_Ankle_Lateral			L_Heel			L_Toe		
		X1	Y1	Z1	X2	Y2	Z2	X3	Y3	Z3	X4	Y4	Z4	X5	Y5	Z5	X6	Y6	Z6	X7	Y7	Z7	X8	Y8	Z8	X9	Y9	Z9	X10	Y10	Z10	X11	Y11	Z11	X12	Y12	Z12	X13	Y13	Z13	X14	Y14	Z14	X15	Y15	Z15	X16	Y16	Z16	X17	Y17	Z17	X18	Y18	Z18	X19	Y19	Z19	X20	Y20	Z20	X21	Y21	Z21	X22	Y22	Z22	X23	Y23	Z23	X24	Y24	Z24	X25	Y25	Z25	X26	Y26	Z26	X27	Y27	Z27
159	1.58000000	-1240.370728	1491.566040	315.809479	-1177.101562	1485.321777	-44.746067	-1233.996216	1552.874512	126.433151	-1095.484497	1423.909912	150.063614	-1227.013306	1184.263794	458.523804	-1270.498047	1182.626709	-160.527527	-1102.099670	961.617035	435.461090	-1246.650879	921.278046	-137.040424	-1181.899414	967.038696	304.551880	-1121.399292	932.970520	16.364248	-1358.340088	973.177429	176.119705	-1337.662720	959.136169	72.966904	-1348.001404	966.156799	124.543304	-1337.152588	1225.322998	107.905357	-1056.876343	1264.726685	172.930176	-1200.439087	779.897522	398.622528	-1164.367798	510.535553	369.938232	-1237.122803	337.017578	433.832733	-1240.301392	104.349495	359.199921	-1275.949707	89.173866	301.449524	-1101.529785	56.176594	381.345367	-1176.510620	678.243347	-48.105347	-1171.313354	461.063416	48.341393	-1214.586182	321.198578	-3.306559	-1270.237061	69.041649	98.677521	-1317.012939	55.855320	155.457886	-1128.774658	39.884689	98.269020
160	1.59000000	-1238.667480	1491.412231	315.397522	-1175.110596	1484.956177	-45.120949	-1232.086914	1552.688110	125.994209	-1093.742554	1423.522949	149.789597	-1225.373291	1184.156616	458.226013	-1268.889648	1182.322876	-160.781128	-1100.544006	961.428406	435.633926	-1245.796082	920.910828	-136.743332	-1180.876709	966.727966	304.351898	-1119.662964	932.776184	16.145800	-1357.055054	973.055298	175.632416	-1336.181396	958.992004	72.542007	-1346.618225	966.023651	124.087212	-1335.571411	1225.236816	107.462372	-1055.354614	1264.322021	172.771347	-1199.831055	779.707520	398.569214	-1162.192749	510.631714	369.071289	-1230.392212	335.707123	434.359467	-1228.093750	102.597961	360.926239	-1263.797852	86.316528	303.418945	-1087.857422	58.104736	382.305328	-1174.827515	677.965027	-48.121380	-1170.191284	460.840027	48.418163	-1213.667358	321.023010	-3.241254	-1270.099976	69.029030	98.730949	-1317.022827	55.954617	155.464920	-1128.751221	39.894356	98.387062
161	1.60000000	-1236.963623	1491.229492	315.039978	-1173.119507	1484.560425	-45.445515	-1230.189331	1552.473633	125.605507	-1092.003174	1423.111084	149.564926	-1223.736694	1183.993408	457.947205	-1267.202148	1181.975952	-160.998886	-1099.021606	961.170593	435.848877	-1244.792908	920.507629	-136.473106	-1179.796387	966.348267	304.174286	-1117.926514	932.590881	15.921805	-1355.734375	972.886475	175.191162	-1334.677856	958.822998	72.159348	-1345.206116	965.854736	123.675255	-1333.991211	1225.118774	107.088043	-1053.830566	1263.891968	172.649826	-1199.220215	779.439514	398.547485	-1159.935181	510.681946	368.217712	-1223.746216	334.495911	434.803680	-1215.958618	101.076355	362.560699	-1251.620972	83.714264	305.267365	-1074.401978	60.174896	383.270416	-1173.087158	677.685730	-48.128601	-1169.056519	460.605530	48.474327	-1212.765503	320.843811	-3.199985	-1269.961914	69.008446	98.779709	-1317.042969	56.054806	155.466675	-1128.733398	39.901604	98.495514
162	1.61000000	-1235.258545	1491.018433	314.737762	-1171.132324	1484.138672	-45.719280	-1228.305176	1552.232788	125.268257	-1090.266357	1422.677612	149.388550	-1222.104980	1183.776367	457.691437	-1265.438965	1181.589233	-161.179169	-1097.534546	960.846497	436.099655	-1243.636230	920.072754	-136.232559	-1178.649536	965.904236	304.017395	-1116.204834	932.410034	15.694845	-1354.373413	972.671875	174.799042	-1333.151978	958.630310	71.821312	-1343.762695	965.651093	123.310177	-1332.410889	1224.969727	106.783653	-1052.302124	1263.439941	172.563293	-1198.585449	779.100830	398.556122	-1157.579834	510.692719	367.387756	-1217.212646	333.391266	435.154907	-1203.968384	99.788261	364.076630	-1239.488770	81.381676	306.965424	-1061.237305	62.352676	384.228210	-1171.303589	677.405579	-48.133469	-1167.916260	460.359772	48.504601	-1211.892334	320.662140	-3.186076	-1269.825684	68.980301	98.822861	-1317.070801	56.153610	155.462616	-1128.721924	39.905643	98.589691
163	1.62000000	-1233.551514	1490.779907	314.491699	-1169.152954	1483.695068	-45.941929	-1226.436035	1551.966797	124.983658	-1088.531982	1422.225708	149.259262	-1220.479370	1183.508057	457.462952	-1263.604004	1181.166748	-161.321091	-1096.084839	960.459229	436.379883	-1242.321899	919.611115	-136.022911	-1177.427734	965.400635	303.879730	-1114.510986	932.229065	15.467432	-1352.967651	972.412415	174.459412	-1331.603638	958.414978	71.530510	-1342.285645	965.413696	122.994961	-1330.828857	1224.790649	106.550301	-1050.767334	1262.969482	172.509155	-1197.902954	778.699402	398.592682	-1155.112305	510.669891	366.589935	-1210.812744	332.395477	435.405212	-1192.193726	98.729698	365.449188	-1227.474609	79.326782	308.486084	-1048.432983	64.596458	385.163330	-1169.493042	677.125366	-48.143364	-1166.776733	460.102722	48.504555	-1211.058472	320.478760	-3.202163	-1269.694458	68.945618	98.859543	-1317.102173	56.248466	155.452332	-1128.717163	39.905560	98.665329
164	1.63000000	-1231.841431	1490.514526	314.302460	-1167.185303	1483.234009	-46.113338	-1224.583374	1551.677002	124.752899	-1086.799561	1421.758545	149.175659	-1218.860474	1183.191528	457.266144	-1261.701782	1180.712891	-161.424500	-1094.673950	960.012207	436.683167	-1240.847046	919.127930	-135.843800	-1176.122314	964.842773	303.759857	-1112.855103	932.043762	15.241654	-1351.512451	972.108887	174.175888	-1330.033203	958.177856	71.289574	-1340.772827	965.143372	122.732731	-1329.244019	1224.582153	106.388878	-1049.223999	1262.483887	172.484589	-1197.147217	778.243286	398.653625	-1152.519043	510.618713	365.831146	-1204.562500	331.505981	435.549255	-1180.702515	97.889709	366.655945	-1215.655273	77.551453	309.805054	-1036.053345	66.858612	386.057007	-1167.672607	676.846619	-48.165840	-1165.643555	459.834900	48.470627	-1210.272583	320.294159	-3.250082	-1269.571289	68.905952	98.889084	-1317.132812	56.336906	155.435501	-1128.719238	39.900475	98.718773
165	1.64000000	-1230.127319	1490.223145	314.170654	-1165.232910	1482.760132	-46.233578	-1222.748657	1551.365112	124.577095	-1085.068848	1421.279297	149.136246	-1217.248535	1182.830078	457.105255	-1259.737427	1180.232544	-161.489960	-1093.302917	959.508820	437.003250	-1239.210144	918.628571	-135.693310	-1174.724854	964.235840	303.656708	-1111.243530	931.850830	15.018813	-1350.003174	971.762085	173.952240	-1328.441162	957.919617	71.101120	-1339.222168	964.840851	122.526680	-1327.654663	1224.345093	106.300117	-1047.669922	1261.986694	172.486618	-1196.291748	777.740723	398.734772	-1149.787842	510.543427	365.116455	-1198.473022	330.716431	435.584015	-1169.558838	97.251106	367.677368	-1204.108521	76.051773	310.901489	-1024.156494	69.086929	386.887177	-1165.859009	676.571472	-48.207577	-1164.521484	459.557251	48.400124	-1209.541626	320.108459	-3.330736	-1269.458862	68.863167	98.911064	-1317.158325	56.416870	155.412064	-1128.728271	39.889687	98.747047
166	1.65000000	-1228.407715	1489.906128	314.096741	-1163.299438	1482.277588	-46.302940	-1220.932983	1551.032104	124.457283	-1083.339355	1420.791016	149.139389	-1215.643799	1182.427124	456.984009	-1257.716064	1179.731079	-161.518616	-1091.972534	958.952332	437.334137	-1237.411316	918.118347	-135.568150	-1173.227295	963.585266	303.569366	-1109.677734	931.648499	14.799091	-1348.435059	971.372803	173.792328	-1326.828125	957.640747	70.967766	-1337.631592	964.506775	122.380047	-1326.059082	1224.079834	106.284653	-1046.102905	1261.481201	172.512146	-1195.309204	777.199890	398.831512	-1146.908569	510.447205	364.449158	-1192.551392	330.017151	435.508514	-1158.821899	96.791397	368.497284	-1192.911621	74.818443	311.758636	-1012.793335	71.226303	387.628723	-1164.067017	676.302612	-48.273514	-1163.414673	459.271362	48.291306	-1208.870483	319.921906	-3.443952	-1269.359741	68.819237	98.925438	-1317.175171	56.486908	155.382294	-1128.744507	39.872807	98.747917
